<?xml version="1.0" encoding="UTF-8" standalone="no"?>
<!-- Created with Inkscape (http://www.inkscape.org/) -->

<svg
   width="1024"
   height="1024"
   viewBox="0 0 270.93333 270.93333"
   version="1.1"
   id="svg5"
   inkscape:version="1.2 (dc2aeda, 2022-05-15)"
   sodipodi:docname="icon.svg"
   inkscape:export-filename="icon.png"
   inkscape:export-xdpi="96"
   inkscape:export-ydpi="96"
   xml:space="preserve"
   xmlns:inkscape="http://www.inkscape.org/namespaces/inkscape"
   xmlns:sodipodi="http://sodipodi.sourceforge.net/DTD/sodipodi-0.dtd"
   xmlns="http://www.w3.org/2000/svg"
   xmlns:svg="http://www.w3.org/2000/svg"><sodipodi:namedview
     id="namedview7"
     pagecolor="#505050"
     bordercolor="#eeeeee"
     borderopacity="1"
     inkscape:pageshadow="0"
     inkscape:pageopacity="0"
     inkscape:pagecheckerboard="0"
     inkscape:document-units="mm"
     showgrid="false"
     inkscape:zoom="0.34912869"
     inkscape:cx="551.37262"
     inkscape:cy="648.75791"
     inkscape:window-width="1512"
     inkscape:window-height="945"
     inkscape:window-x="0"
     inkscape:window-y="37"
     inkscape:window-maximized="0"
     inkscape:current-layer="layer1"
     inkscape:showpageshadow="0"
     inkscape:deskcolor="#505050" /><defs
     id="defs2" /><g
     inkscape:label="Layer 1"
     inkscape:groupmode="layer"
     id="layer1"
     transform="translate(-88.5,-45)"><rect
       style="fill:#000000;fill-opacity:1;stroke:none;stroke-width:0.820835"
       id="rect846"
       width="220.13333"
       height="220.13333"
       x="113.9"
       y="70.400002"
       ry="27.733545" /><path
       d="m 193.08634,232.45853 h -2.70113 l -1.90909,-1.90904 -27.62065,-27.6207 -1.8888,-1.88875 v -2.70113 -3.24951 -2.70114 l 1.90909,-1.9091 27.62069,-27.62064 1.90905,-1.90909 h 2.68084 11.3732 6.49899 v 6.49898 6.49897 h 12.99797 19.49694 6.49898 v 6.49898 6.49899 h 2.17311 l 22.74645,-22.74646 -22.74645,-22.72612 h -2.17311 v 6.49898 6.49898 h -6.49898 -19.49694 -6.49898 v -12.99796 h 6.49898 12.99795 v -6.49898 -6.49899 h 6.49899 11.37321 2.7012 l 1.90904,1.9091 27.62069,27.62068 1.90909,1.90905 v 2.68084 3.24952 2.70114 l -1.90909,1.90903 -27.62069,27.6207 -1.90904,1.90909 h -2.7012 -11.37321 -6.49899 v -6.51931 -6.49899 h -12.99795 -19.49696 -6.49897 v -6.49899 -6.49898 h -2.17309 l -22.74643,22.74647 22.74643,22.74642 h 2.17309 v -6.499 -6.49898 h 6.49897 19.49696 6.49898 v 12.99798 h -6.49898 -12.99797 v 6.49898 6.49898 h -6.49899 z"
       id="path334"
       style="fill:#e6e6e6;fill-opacity:1;stroke-width:0.203093" /></g></svg>
