<?xml version="1.0" encoding="UTF-8" standalone="no"?>
<!-- Created with Inkscape (http://www.inkscape.org/) -->

<svg
   width="1024"
   height="1024"
   viewBox="0 0 270.93333 270.93333"
   version="1.1"
   id="svg5"
   inkscape:version="1.2 (dc2aeda, 2022-05-15)"
   sodipodi:docname="icon.svg"
   inkscape:export-filename="icon.png"
   inkscape:export-xdpi="96"
   inkscape:export-ydpi="96"
   xml:space="preserve"
   xmlns:inkscape="http://www.inkscape.org/namespaces/inkscape"
   xmlns:sodipodi="http://sodipodi.sourceforge.net/DTD/sodipodi-0.dtd"
   xmlns="http://www.w3.org/2000/svg"
   xmlns:svg="http://www.w3.org/2000/svg"><sodipodi:namedview
     id="namedview7"
     pagecolor="#505050"
     bordercolor="#eeeeee"
     borderopacity="1"
     inkscape:pageshadow="0"
     inkscape:pageopacity="0"
     inkscape:pagecheckerboard="0"
     inkscape:document-units="mm"
     showgrid="false"
     inkscape:zoom="0.34912869"
     inkscape:cx="637.30082"
     inkscape:cy="645.89364"
     inkscape:window-width="1512"
     inkscape:window-height="831"
     inkscape:window-x="0"
     inkscape:window-y="25"
     inkscape:window-maximized="0"
     inkscape:current-layer="layer1"
     inkscape:showpageshadow="0"
     inkscape:deskcolor="#505050" /><defs
     id="defs2" /><g
     inkscape:label="Layer 1"
     inkscape:groupmode="layer"
     id="layer1"
     transform="translate(-88.5,-45)"><rect
       style="fill:#000000;fill-opacity:1;stroke:none;stroke-width:0.820835"
       id="rect846"
       width="220.13333"
       height="220.13333"
       x="113.9"
       y="70.400002"
       ry="27.733545" /><path
       d="m 186.25704,243.95673 h -3.2985 l -2.3313,-2.33123 -33.72905,-33.72913 -2.30652,-2.30645 v -3.29849 -3.96816 -3.2985 l 2.3313,-2.33131 33.72911,-33.72905 2.33124,-2.33129 h 3.27372 13.88843 7.93626 v 7.93625 7.93625 h 15.87252 23.80877 7.93626 v 7.93626 7.93626 h 2.65368 l 27.77693,-27.77693 -27.77693,-27.75208 h -2.65368 v 7.93624 7.93626 h -7.93626 -23.80877 -7.93626 v -15.8725 h 7.93626 15.8725 v -7.93626 -7.93627 h 7.93627 13.88844 3.29857 l 2.33123,2.33131 33.72911,33.7291 2.3313,2.33124 v 3.27372 3.96816 3.29851 l -2.3313,2.33122 -33.72911,33.72912 -2.33123,2.3313 h -3.29857 -13.88844 -7.93627 v -7.96109 -7.93627 h -15.8725 -23.80878 -7.93625 v -7.93625 -7.93626 h -2.65368 l -27.77688,27.77694 27.77688,27.77687 h 2.65368 v -7.93627 -7.93626 h 7.93625 23.80878 7.93625 v 15.87253 h -7.93625 -15.87252 v 7.93625 7.93626 h -7.93626 z"
       id="path334"
       style="fill:#f9f9f9;stroke-width:0.248007;fill-opacity:1" /></g></svg>
